/* XPM */
const char * block_xpm[] = {
"16 16 6 1",
" 	c None",
".	c #000000",
"+	c #008282",
"@	c #C3C3C3",
"#	c #FFFFFF",
"$	c #828282",
"                ",
"   ............ ",
"  .++++++++++.. ",
" ............+. ",
" .@@@@@@@@@@.+. ",
" .@########@.+. ",
" .@##@@@.##@.+. ",
" .@#$@$$.$#@.+. ",
" .@##@$$.##@.+. ",
" .@#$@$$.$#@.+. ",
" .@##@$$.##@.+. ",
" .@#$@...$#@.+. ",
" .@########@.+. ",
" .@@@@@@@@@@..  ",
" ............   ",
"                "};
