/* XPM */
const char * character_xpm[] = {
"16 16 7 1",
" 	c None",
".	c #000000",
"+	c #008282",
"@	c #FFFFFF",
"#	c #C3C3C3",
"$	c #FF0000",
"%	c #820000",
"                ",
"   ............ ",
"  .++++++++++.. ",
" ............+. ",
" .@@@@@@@@@@.+. ",
" .@@@@@@@@@@.+. ",
" .@@@@@@@@@@.+. ",
" .@@@@@@@@@@.+. ",
" .@########@.+. ",
" .@@@@@@@@@@.+. ",
" .@########@.+. ",
" .@@@@@@@@@@.+. ",
" .@@@@@@@$%@.+. ",
" .@@@@@@@@@@..  ",
" ............   ",
"                "};
