/* XPM */
const char * folder_xpm[] = {
"16 16 7 1",
" 	c None",
".	c #000000",
"+	c #FFFF00",
"@	c #00FF00",
"#	c #FFFFFF",
"$	c #828200",
"%	c #008200",
"                ",
"   ....         ",
"  .++++.        ",
" .............  ",
" .@@@########$. ",
" .@%%++++++++$. ",
" .@%%++++++++$. ",
" .@%%++++++++$. ",
" .@%%++++++++$. ",
" .@%%++++++++$. ",
" .@%%++++++++$. ",
" .@%%++++++++$. ",
" .@%%++++++++$. ",
" .%%%$$$$$$$$$. ",
"  ............  ",
"                "};
