/* XPM */
const char * socket_xpm[] = {
"16 16 4 1",
" 	c None",
".	c #000000",
"+	c #FFFFFF",
"@	c #C3C3C3",
"                ",
"                ",
"                ",
"    ........    ",
"   .++++++++.   ",
"   .+..++..+.   ",
"   .+.@++.@+.   ",
"   .++++++++.   ",
"   .+++..+++.   ",
"   .+++.@+++.   ",
"   .+++@@+++.   ",
"   .++++++++.   ",
"    ........    ",
"                ",
"                ",
"                "};
